<svg width="407" height="374" viewBox="0 0 407 374" fill="none" xmlns="http://www.w3.org/2000/svg">
<path fill-rule="evenodd" clip-rule="evenodd" d="M110.997 97.7907L190.513 181.197L238.563 146.437L168.608 91.8613L197.074 63.3951L223.488 89.8077L252.872 60.4233L198.954 6.50509L110.997 97.7907Z" stroke="#E2B78C" stroke-width="13.0102" stroke-miterlimit="1.5" stroke-linecap="round" stroke-linejoin="round"/>
<path fill-rule="evenodd" clip-rule="evenodd" d="M253.019 175.376L285.961 213.941L339.464 159.132L362.921 167.822L400.152 131.613L320.011 46.3326L266.763 105.771L294.299 135.778L253.019 175.376Z" stroke="#E2B78C" stroke-width="13.0102" stroke-miterlimit="1.5" stroke-linecap="round" stroke-linejoin="round"/>
<path fill-rule="evenodd" clip-rule="evenodd" d="M83.4287 344.666L110.173 367.354L226.664 273.593L275.794 321.174L302.403 293.031L226.664 204.058L83.4287 344.666Z" stroke="#E2B78C" stroke-width="13.0102" stroke-miterlimit="1.5" stroke-linecap="round" stroke-linejoin="round"/>
<path fill-rule="evenodd" clip-rule="evenodd" d="M34.003 228.166L89.7831 281.884L125.367 244.782L34.4754 172.037L6.50488 201.39L34.003 228.166Z" stroke="#E2B78C" stroke-width="13.0102" stroke-miterlimit="1.5" stroke-linecap="round" stroke-linejoin="round"/>
<path fill-rule="evenodd" clip-rule="evenodd" d="M55.3359 148.312L151.124 220.331L168.986 202.736L83.5932 117.343L55.3359 148.312Z" stroke="#E2B78C" stroke-width="13.0102" stroke-miterlimit="1.5" stroke-linecap="round" stroke-linejoin="round"/>
</svg>
