<svg width="158" height="174" viewBox="0 0 158 174" fill="none" xmlns="http://www.w3.org/2000/svg">
<path fill-rule="evenodd" clip-rule="evenodd" d="M85.7627 -3.55507L46.647 45.7796L69.09 69.1499L93.329 27.1692L110.885 40.4188L98.5915 56.7089L116.714 70.3859L141.81 37.1326L85.7627 -3.55507Z" stroke="#E2B78C" stroke-width="7.10818" stroke-miterlimit="1.5" stroke-linecap="round" stroke-linejoin="round"/>
<path fill-rule="evenodd" clip-rule="evenodd" d="M54.5253 79.1603L36.1499 99.9024L69.8539 124.706L66.9262 138.056L89.3344 155.462L129.417 105.648L93.2277 81.3324L79.0742 98.5016L54.5253 79.1603Z" stroke="#E2B78C" stroke-width="7.10818" stroke-miterlimit="1.5" stroke-linecap="round" stroke-linejoin="round"/>
<path fill-rule="evenodd" clip-rule="evenodd" d="M-49.9047 0.202708L-60.1581 16.3898L-0.612754 72.33L-22.6421 102.513L-5.40133 114.782L37.0119 67.0701L-49.9047 0.202708Z" stroke="#E2B78C" stroke-width="7.10818" stroke-miterlimit="1.5" stroke-linecap="round" stroke-linejoin="round"/>
<path fill-rule="evenodd" clip-rule="evenodd" d="M9.39355 -35.3537L-15.4534 -1.10803L7.31406 15.3394L39.8 -39.3438L21.8017 -52.2581L9.39355 -35.3537Z" stroke="#E2B78C" stroke-width="7.10818" stroke-miterlimit="1.5" stroke-linecap="round" stroke-linejoin="round"/>
<path fill-rule="evenodd" clip-rule="evenodd" d="M54.2159 -29.8512L22.4929 27.4269L33.3642 35.761L73.1103 -16.9041L54.2159 -29.8512Z" stroke="#E2B78C" stroke-width="7.10818" stroke-miterlimit="1.5" stroke-linecap="round" stroke-linejoin="round"/>
</svg>
