<svg width="20" height="20" viewBox="0 0 20 20" fill="none" xmlns="http://www.w3.org/2000/svg">
<path d="M2.85686 0C1.28112 0 0 1.28112 0 2.85686V17.1412C0 18.7169 1.28112 19.998 2.85686 19.998H17.1412C18.7169 19.998 19.998 18.7169 19.998 17.1412V2.85686C19.998 1.28112 18.7169 0 17.1412 0H2.85686ZM16.119 3.74963L11.4855 9.04376L16.9358 16.2484H12.6684L9.32945 11.8783L5.50393 16.2484H3.3836L8.33847 10.5838L3.1113 3.74963H7.48588L10.5079 7.74478L13.9986 3.74963H16.119ZM14.4316 14.9807L6.84755 4.95041H5.58428L13.2532 14.9807H14.4272H14.4316Z" fill="white"/>
</svg>
