<svg width="12" height="12" viewBox="0 0 12 12" fill="none" xmlns="http://www.w3.org/2000/svg">
<path fill-rule="evenodd" clip-rule="evenodd" d="M4.83593 0.0568446C4.68469 0.00636143 4.52431 -0.0107906 4.3658 0.00656639C4.2073 0.0239234 4.05443 0.0753782 3.9177 0.157398L1.64144 1.52315C1.47782 1.62132 1.34241 1.7602 1.2484 1.92624C1.15439 2.09229 1.10498 2.27985 1.10498 2.47067V9.8928H0.552489C0.40596 9.8928 0.265432 9.95101 0.16182 10.0546C0.0582084 10.1582 0 10.2988 0 10.4453C0 10.5918 0.0582084 10.7323 0.16182 10.836C0.265432 10.9396 0.40596 10.9978 0.552489 10.9978H10.4973C10.6438 10.9978 10.7843 10.9396 10.888 10.836C10.9916 10.7323 11.0498 10.5918 11.0498 10.4453C11.0498 10.2988 10.9916 10.1582 10.888 10.0546C10.7843 9.95101 10.6438 9.8928 10.4973 9.8928H9.9448V2.55575C9.94466 2.324 9.87166 2.09816 9.73612 1.91018C9.60059 1.72219 9.40938 1.58158 9.18954 1.50823L4.83593 0.0568446ZM3.86742 1.47674L2.20995 2.47122V9.8928H3.86742V1.47619V1.47674Z" fill="black"/>
</svg>
