<svg width="592" height="592" viewBox="0 0 592 592" fill="none" xmlns="http://www.w3.org/2000/svg">
<path d="M21 296.005C21 447.635 144.364 571 296.005 571C447.644 571 571 447.646 571 296.005C571 144.365 447.644 21 296.005 21C144.364 21 21 144.375 21 296.005ZM246.152 185.473L276.304 215.597C283.333 222.635 283.333 233.974 276.304 240.994L265.496 251.812C264.518 252.785 263.991 253.982 263.654 255.236C256.262 265.206 256.982 279.313 265.997 288.337L309.87 332.21C318.894 341.254 333.02 341.978 342.971 334.563C344.225 334.225 345.412 333.689 346.395 332.735L357.213 321.893C364.231 314.894 375.591 314.874 382.592 321.893L412.753 352.035C419.772 359.08 419.772 370.413 412.753 377.434L391.096 399.076C364.272 425.936 320.591 425.915 293.752 399.076L199.142 304.456C172.313 277.616 172.313 233.947 199.142 207.111L220.775 185.473C227.802 178.454 239.146 178.454 246.152 185.473Z" fill="black"/>
<path fill-rule="evenodd" clip-rule="evenodd" d="M276.304 215.597L246.152 185.473C239.146 178.454 227.802 178.454 220.775 185.473L199.142 207.111C172.313 233.947 172.313 277.616 199.142 304.456L293.752 399.076C320.591 425.915 364.272 425.936 391.096 399.076L412.753 377.434C419.772 370.413 419.772 359.08 412.753 352.035L382.592 321.893C375.591 314.874 364.231 314.894 357.213 321.893L346.395 332.735C345.412 333.689 344.225 334.225 342.971 334.563C333.02 341.978 318.894 341.254 309.87 332.21L265.997 288.337C256.982 279.313 256.262 265.206 263.654 255.236C263.991 253.982 264.518 252.785 265.496 251.812L276.304 240.994C283.333 233.974 283.333 222.635 276.304 215.597Z" fill="white"/>
<path d="M10.5 296.005C10.5 138.576 138.564 10.5 296.005 10.5C453.444 10.5 581.5 138.567 581.5 296.005C581.5 453.445 453.443 581.5 296.005 581.5C138.565 581.5 10.5 453.434 10.5 296.005Z" stroke="white" stroke-width="21"/>
</svg>
