<svg width="650" height="650" viewBox="0 0 650 650" fill="none" xmlns="http://www.w3.org/2000/svg">
<g filter="url(#filter0_d_199_440)">
<path d="M50 325.005C50 476.635 173.364 600 325.005 600C476.644 600 600 476.646 600 325.005C600 173.365 476.644 50 325.005 50C173.364 50 50 173.375 50 325.005ZM275.152 214.473L305.304 244.597C312.333 251.635 312.333 262.974 305.304 269.994L294.496 280.812C293.518 281.785 292.991 282.982 292.654 284.236C285.262 294.206 285.982 308.313 294.997 317.337L338.87 361.21C347.894 370.254 362.02 370.978 371.971 363.563C373.225 363.225 374.412 362.689 375.395 361.735L386.213 350.893C393.231 343.894 404.591 343.874 411.592 350.893L441.753 381.035C448.772 388.08 448.772 399.413 441.753 406.434L420.096 428.076C393.272 454.936 349.591 454.915 322.752 428.076L228.142 333.456C201.313 306.616 201.313 262.947 228.142 236.111L249.775 214.473C256.802 207.454 268.146 207.454 275.152 214.473Z" fill="black"/>
</g>
<g filter="url(#filter1_d_199_440)">
<path fill-rule="evenodd" clip-rule="evenodd" d="M305.304 244.597L275.152 214.473C268.146 207.454 256.802 207.454 249.775 214.473L228.142 236.111C201.313 262.947 201.313 306.616 228.142 333.456L322.752 428.076C349.591 454.915 393.272 454.936 420.096 428.076L441.753 406.434C448.772 399.413 448.772 388.08 441.753 381.035L411.592 350.893C404.591 343.874 393.231 343.894 386.213 350.893L375.395 361.735C374.412 362.689 373.225 363.225 371.971 363.563C362.02 370.978 347.894 370.254 338.87 361.21L294.997 317.337C285.982 308.313 285.262 294.206 292.654 284.236C292.991 282.982 293.518 281.785 294.496 280.812L305.304 269.994C312.333 262.974 312.333 251.635 305.304 244.597Z" fill="white"/>
</g>
<g filter="url(#filter2_d_199_440)">
<path d="M25 325.005C25 159.568 159.556 25 325.005 25C490.453 25 625 159.559 625 325.005C625 490.453 490.451 625 325.005 625C159.557 625 25 490.442 25 325.005Z" stroke="white" stroke-width="50" shape-rendering="crispEdges"/>
<path d="M25 325.005C25 159.568 159.556 25 325.005 25C490.453 25 625 159.559 625 325.005C625 490.453 490.451 625 325.005 625C159.557 625 25 490.442 25 325.005Z" stroke="black" stroke-opacity="0.2" stroke-width="50" shape-rendering="crispEdges"/>
</g>
<defs>
<filter id="filter0_d_199_440" x="46" y="50" width="558" height="558" filterUnits="userSpaceOnUse" color-interpolation-filters="sRGB">
<feFlood flood-opacity="0" result="BackgroundImageFix"/>
<feColorMatrix in="SourceAlpha" type="matrix" values="0 0 0 0 0 0 0 0 0 0 0 0 0 0 0 0 0 0 127 0" result="hardAlpha"/>
<feOffset dy="4"/>
<feGaussianBlur stdDeviation="2"/>
<feComposite in2="hardAlpha" operator="out"/>
<feColorMatrix type="matrix" values="0 0 0 0 0.216346 0 0 0 0 0.216346 0 0 0 0 0.216346 0 0 0 0.25 0"/>
<feBlend mode="normal" in2="BackgroundImageFix" result="effect1_dropShadow_199_440"/>
<feBlend mode="normal" in="SourceGraphic" in2="effect1_dropShadow_199_440" result="shape"/>
</filter>
<filter id="filter1_d_199_440" x="204.02" y="209.209" width="246.997" height="247.004" filterUnits="userSpaceOnUse" color-interpolation-filters="sRGB">
<feFlood flood-opacity="0" result="BackgroundImageFix"/>
<feColorMatrix in="SourceAlpha" type="matrix" values="0 0 0 0 0 0 0 0 0 0 0 0 0 0 0 0 0 0 127 0" result="hardAlpha"/>
<feOffset dy="4"/>
<feGaussianBlur stdDeviation="2"/>
<feComposite in2="hardAlpha" operator="out"/>
<feColorMatrix type="matrix" values="0 0 0 0 0.216346 0 0 0 0 0.216346 0 0 0 0 0.216346 0 0 0 0.25 0"/>
<feBlend mode="normal" in2="BackgroundImageFix" result="effect1_dropShadow_199_440"/>
<feBlend mode="normal" in="SourceGraphic" in2="effect1_dropShadow_199_440" result="shape"/>
</filter>
<filter id="filter2_d_199_440" x="-4" y="0" width="658" height="658" filterUnits="userSpaceOnUse" color-interpolation-filters="sRGB">
<feFlood flood-opacity="0" result="BackgroundImageFix"/>
<feColorMatrix in="SourceAlpha" type="matrix" values="0 0 0 0 0 0 0 0 0 0 0 0 0 0 0 0 0 0 127 0" result="hardAlpha"/>
<feOffset dy="4"/>
<feGaussianBlur stdDeviation="2"/>
<feComposite in2="hardAlpha" operator="out"/>
<feColorMatrix type="matrix" values="0 0 0 0 0.216346 0 0 0 0 0.216346 0 0 0 0 0.216346 0 0 0 0.25 0"/>
<feBlend mode="normal" in2="BackgroundImageFix" result="effect1_dropShadow_199_440"/>
<feBlend mode="normal" in="SourceGraphic" in2="effect1_dropShadow_199_440" result="shape"/>
</filter>
</defs>
</svg>
