<svg width="20" height="20" viewBox="0 0 20 20" fill="none" xmlns="http://www.w3.org/2000/svg">
<path d="M10.01 0.629776C10.0258 0.532518 10.0606 0.439326 10.1125 0.355524C10.1643 0.271722 10.2321 0.198954 10.3121 0.141376C10.392 0.0837986 10.4825 0.0425408 10.5785 0.0199602C10.6744 -0.00262032 10.7738 -0.00608106 10.871 0.00977581C10.897 0.0147758 10.978 0.0297758 11.021 0.0397758C11.107 0.0584425 11.2244 0.0887759 11.373 0.130776C11.67 0.217776 12.085 0.360776 12.583 0.587776C13.579 1.04478 14.904 1.84378 16.28 3.21978C17.656 4.59578 18.455 5.92078 18.912 6.91778C19.14 7.41478 19.282 7.82978 19.369 8.12678C19.4126 8.27691 19.4503 8.42869 19.482 8.58178L19.487 8.61178C19.5202 8.80996 19.4742 9.01326 19.3587 9.17774C19.2432 9.34222 19.0677 9.45466 18.87 9.49078C18.6742 9.52257 18.4738 9.4755 18.3126 9.35986C18.1514 9.24422 18.0426 9.06944 18.01 8.87378L17.996 8.80578C17.9766 8.71838 17.9543 8.63167 17.929 8.54578C17.8268 8.20269 17.6998 7.86748 17.549 7.54278C17.159 6.69278 16.458 5.51778 15.219 4.28078C13.982 3.04278 12.808 2.34078 11.957 1.95078C11.6323 1.80001 11.2971 1.67301 10.954 1.57078C10.8488 1.54122 10.7427 1.51454 10.636 1.49078C10.4399 1.45783 10.2645 1.34932 10.1475 1.18855C10.0305 1.02777 9.98112 0.827524 10.01 0.630776" fill="black"/>
<path fill-rule="evenodd" clip-rule="evenodd" d="M10.2361 4.07981C10.2907 3.88861 10.4191 3.72695 10.5929 3.63038C10.7668 3.5338 10.9719 3.51022 11.1631 3.56481H11.1661L11.1691 3.56681L11.1771 3.56881L11.1971 3.57481C11.2124 3.57948 11.2311 3.58615 11.2531 3.59481C11.2984 3.60948 11.3574 3.63248 11.4301 3.66381C11.5761 3.72581 11.7751 3.82281 12.0201 3.96681C12.5101 4.25681 13.1771 4.73781 13.9621 5.52281C14.7471 6.30781 15.2281 6.97581 15.5181 7.46581C15.6631 7.70981 15.7591 7.90881 15.8221 8.05581C15.8546 8.13223 15.884 8.20996 15.9101 8.28881L15.9171 8.30881L15.9191 8.31581V8.31881L15.9201 8.32081C15.9734 8.51078 15.9496 8.71508 15.8541 8.88767C15.7585 9.06027 15.5987 9.18825 15.4095 9.24389C15.2202 9.29953 15.0166 9.27835 14.8428 9.18493C14.669 9.09152 14.5391 8.93339 14.4811 8.74481L14.4781 8.73381L14.4431 8.64581C14.3793 8.50304 14.3071 8.36414 14.2271 8.22981C14.0041 7.85281 13.6021 7.28381 12.9021 6.58381C12.2021 5.88381 11.6321 5.48081 11.2561 5.25781C11.0942 5.16275 10.9257 5.07921 10.7521 5.00781L10.7411 5.00381C10.5524 4.94701 10.3937 4.81824 10.2992 4.64534C10.2047 4.47243 10.182 4.26929 10.2361 4.07981ZM1.75708 3.15681C3.43708 1.47681 6.27308 1.60481 7.44308 3.70081L8.09208 4.86381C8.85508 6.23281 8.53008 7.95981 7.41208 9.09181C7.34621 9.19167 7.31014 9.30821 7.30808 9.42781C7.29508 9.68381 7.38608 10.2768 8.30508 11.1948C9.22308 12.1128 9.81508 12.2048 10.0721 12.1918C10.1919 12.1902 10.3088 12.1545 10.4091 12.0888C11.5401 10.9698 13.2681 10.6448 14.6361 11.4088L15.7991 12.0578C17.8951 13.2278 18.0231 16.0628 16.3431 17.7428C15.4441 18.6408 14.2501 19.4398 12.8451 19.4928C10.7651 19.5718 7.30908 19.0348 3.88708 15.6128C0.466077 12.1908 -0.0719229 8.73581 0.00707715 6.65481C0.0600771 5.25081 0.859077 4.05481 1.75708 3.15681ZM6.13308 4.43181C5.53308 3.35881 3.92308 3.11181 2.81808 4.21781C2.04308 4.99281 1.53808 5.84781 1.50608 6.71181C1.44008 8.44681 1.86908 11.4718 4.94808 14.5518C8.02708 17.6318 11.0531 18.0598 12.7881 17.9938C13.6511 17.9618 14.5081 17.4568 15.2821 16.6818C16.3881 15.5758 16.1421 13.9668 15.0681 13.3678L13.9051 12.7178C13.1821 12.3148 12.1651 12.4528 11.4521 13.1658C11.3821 13.2358 10.9361 13.6518 10.1451 13.6898C9.33508 13.7298 8.35408 13.3658 7.24508 12.2558C6.13408 11.1458 5.77008 10.1648 5.81008 9.35381C5.84808 8.56281 6.26508 8.11681 6.33408 8.04781C7.04808 7.33381 7.18508 6.31781 6.78208 5.59481L6.13308 4.43181Z" fill="black"/>
</svg>
