<svg width="6" height="8" viewBox="0 0 6 8" fill="none" xmlns="http://www.w3.org/2000/svg">
<path d="M2.95171 0C1.40206 0 0 1.18806 0 3.0255C0 4.1988 0.903961 5.57873 2.70819 7.16896C2.8484 7.29072 3.05871 7.29072 3.19891 7.16896C4.99946 5.57873 5.90342 4.1988 5.90342 3.0255C5.90342 1.18806 4.50135 0 2.95171 0ZM2.95171 3.68964C2.54585 3.68964 2.21378 3.35757 2.21378 2.95171C2.21378 2.54585 2.54585 2.21378 2.95171 2.21378C3.35757 2.21378 3.68963 2.54585 3.68963 2.95171C3.68963 3.35757 3.35757 3.68964 2.95171 3.68964Z" fill="black"/>
</svg>
