<svg width="28" height="29" viewBox="0 0 28 29" fill="none" xmlns="http://www.w3.org/2000/svg">
<g filter="url(#filter0_d_145_1078)">
<path d="M22.0222 18.5L16.5222 19.7M16.5222 3V14.22C16.5223 14.3719 16.5569 14.5218 16.6236 14.6583C16.6902 14.7948 16.787 14.9143 16.9067 15.0078C17.0264 15.1013 17.1659 15.1663 17.3145 15.1979C17.463 15.2295 17.6169 15.2268 17.7642 15.19L22.0222 14.2M5.00024 18.351L10.5492 16.988C10.9822 16.8699 11.3629 16.6097 11.6301 16.2491C11.8972 15.8885 12.0354 15.4486 12.0222 15V1M22.0222 9L6.02224 12.5" stroke="black" stroke-width="2" stroke-linecap="round" stroke-linejoin="round" shape-rendering="crispEdges"/>
</g>
<defs>
<filter id="filter0_d_145_1078" x="0" y="0" width="27.0225" height="28.7002" filterUnits="userSpaceOnUse" color-interpolation-filters="sRGB">
<feFlood flood-opacity="0" result="BackgroundImageFix"/>
<feColorMatrix in="SourceAlpha" type="matrix" values="0 0 0 0 0 0 0 0 0 0 0 0 0 0 0 0 0 0 127 0" result="hardAlpha"/>
<feOffset dy="4"/>
<feGaussianBlur stdDeviation="2"/>
<feComposite in2="hardAlpha" operator="out"/>
<feColorMatrix type="matrix" values="0 0 0 0 0 0 0 0 0 0 0 0 0 0 0 0 0 0 0.25 0"/>
<feBlend mode="normal" in2="BackgroundImageFix" result="effect1_dropShadow_145_1078"/>
<feBlend mode="normal" in="SourceGraphic" in2="effect1_dropShadow_145_1078" result="shape"/>
</filter>
</defs>
</svg>
