<svg width="18" height="18" viewBox="0 0 18 18" fill="none" xmlns="http://www.w3.org/2000/svg">
<path d="M3.311 3.33393C4.17984 2.46293 5.23906 1.80557 6.40522 1.41364C7.57138 1.02172 8.81262 0.905924 10.0311 1.07539C11.2497 1.24485 12.4122 1.69494 13.4272 2.3902C14.4421 3.08546 15.2818 4.0069 15.88 5.08193C16.4587 6.15291 16.7862 7.34148 16.8378 8.55771C16.8895 9.77394 16.6638 10.986 16.178 12.1022C15.6922 13.2183 14.9589 14.2094 14.0336 15.0004C13.1082 15.7914 12.0152 16.3616 10.837 16.6679C9.50912 16.9868 8.12186 16.9618 6.80636 16.5952C5.49086 16.2286 4.29058 15.5326 3.319 14.5729C2.859 14.1219 2.151 14.8289 2.612 15.2799C4.07608 16.7432 6.00229 17.6535 8.06236 17.8557C10.1224 18.0578 12.1888 17.5393 13.9094 16.3886C15.6301 15.2378 16.8984 13.526 17.4982 11.5448C18.098 9.56369 17.9923 7.43584 17.199 5.52393C16.636 4.16413 15.7462 2.96423 14.6085 2.03059C13.4709 1.09695 12.1204 0.458422 10.6769 0.171598C9.23336 -0.115226 7.74138 -0.0414836 6.33318 0.386289C4.92498 0.814062 3.64407 1.58265 2.60399 2.62393C2.14399 3.07493 2.851 3.78193 3.311 3.33093L3.311 3.33393Z" fill="white"/>
<path d="M3.15001 12.3058L0.150009 9.30583C0.0558021 9.21352 0.00188769 9.08772 9.15798e-06 8.95584C-0.000382132 8.88884 0.0126945 8.82245 0.0384623 8.76061C0.06423 8.69877 0.102163 8.64273 0.150009 8.59584L3.15001 5.59584C3.24416 5.50168 3.37186 5.44879 3.50501 5.44879C3.63816 5.44879 3.76586 5.50168 3.86001 5.59584C3.95416 5.68999 4.00705 5.81768 4.00705 5.95084C4.00705 6.08399 3.95416 6.21168 3.86001 6.30583L1.72001 8.44584L10.19 8.44583C10.3218 8.44839 10.4475 8.5019 10.5407 8.59511C10.6339 8.68833 10.6874 8.81403 10.69 8.94583C10.69 9.07844 10.6373 9.20562 10.5436 9.29939C10.4498 9.39316 10.3226 9.44583 10.19 9.44583L1.70001 9.44584L3.86001 11.5958C3.90663 11.6425 3.94361 11.6978 3.96884 11.7587C3.99407 11.8196 4.00706 11.8849 4.00706 11.9508C4.00706 12.0168 3.99407 12.082 3.96884 12.143C3.94361 12.2039 3.90663 12.2592 3.86001 12.3058C3.81339 12.3525 3.75805 12.3894 3.69713 12.4147C3.63622 12.4399 3.57094 12.4529 3.50501 12.4529C3.43908 12.4529 3.3738 12.4399 3.31288 12.4147C3.25197 12.3894 3.19663 12.3525 3.15001 12.3058Z" fill="white"/>
</svg>
