<svg width="22" height="22" viewBox="0 0 22 22" fill="none" xmlns="http://www.w3.org/2000/svg">
<path d="M11.75 1.25V3.75C11.75 6.107 11.75 7.286 12.482 8.018C13.214 8.75 14.393 8.75 16.75 8.75H20.75" stroke="black" stroke-width="1.5"/>
<path d="M7.25 17.25V12.25M7.25 12.25L5.25 14.125M7.25 12.25L9.25 14.125" stroke="black" stroke-width="1.5" stroke-linecap="round" stroke-linejoin="round"/>
<path d="M1.5 8.75006C1.5 8.55114 1.42098 8.36038 1.28033 8.21973C1.13968 8.07907 0.948914 8.00006 0.750001 8.00006C0.551089 8.00006 0.360323 8.07907 0.219671 8.21973C0.0790189 8.36038 1.26578e-06 8.55114 1.26578e-06 8.75006H1.5ZM20 12.7501C20 12.949 20.079 13.1397 20.2197 13.2804C20.3603 13.421 20.5511 13.5001 20.75 13.5001C20.9489 13.5001 21.1397 13.421 21.2803 13.2804C21.421 13.1397 21.5 12.949 21.5 12.7501H20ZM0.105001 4.67706C0.0856405 4.87504 0.145721 5.07261 0.272027 5.22629C0.398333 5.37998 0.580517 5.4772 0.778501 5.49656C0.976485 5.51592 1.17405 5.45584 1.32774 5.32953C1.48142 5.20322 1.57864 5.02104 1.598 4.82306L0.105001 4.67706ZM21.395 16.8231C21.4046 16.725 21.3948 16.6261 21.3661 16.5318C21.3375 16.4376 21.2905 16.3499 21.228 16.2738C21.1654 16.1977 21.0885 16.1347 21.0016 16.0883C20.9147 16.0419 20.8195 16.0131 20.7215 16.0036C20.6235 15.994 20.5245 16.0038 20.4303 16.0324C20.336 16.0611 20.2484 16.108 20.1723 16.1706C20.0186 16.2969 19.9214 16.4791 19.902 16.6771L21.395 16.8231ZM12.75 20.0001H8.75V21.5001H12.75V20.0001ZM1.5 12.7501V8.75006H1.26578e-06V12.7501H1.5ZM20 12.3131V12.7501H21.5V12.3131H20ZM13.641 3.36106L17.6 6.92406L18.603 5.80806L14.645 2.24506L13.641 3.36106ZM21.5 12.3131C21.5 10.6241 21.515 9.55405 21.09 8.59805L19.719 9.20905C19.985 9.80705 20 10.4921 20 12.3131H21.5ZM17.6 6.92406C18.953 8.14206 19.453 8.61205 19.719 9.20905L21.09 8.59805C20.664 7.64105 19.859 6.93806 18.603 5.80806L17.6 6.92406ZM8.78 1.50006C10.362 1.50006 10.959 1.51206 11.49 1.71606L12.028 0.316056C11.176 -0.0119442 10.248 5.57854e-05 8.78 5.57854e-05V1.50006ZM14.645 2.24606C13.559 1.26906 12.88 0.642056 12.028 0.316056L11.491 1.71606C12.023 1.92006 12.471 2.30806 13.641 3.36106L14.645 2.24606ZM8.75 20.0001C6.843 20.0001 5.489 19.9981 4.46 19.8601C3.455 19.7251 2.875 19.4711 2.452 19.0481L1.392 20.1081C2.14 20.8581 3.089 21.1891 4.261 21.3471C5.411 21.5021 6.886 21.5001 8.75 21.5001V20.0001ZM1.26578e-06 12.7501C1.26578e-06 14.6141 -0.00199874 16.0881 0.153001 17.2391C0.311001 18.4111 0.643001 19.3601 1.391 20.1091L2.451 19.0491C2.029 18.6251 1.775 18.0451 1.64 17.0391C1.502 16.0121 1.5 14.6571 1.5 12.7501H1.26578e-06ZM12.75 21.5001C14.614 21.5001 16.088 21.5021 17.239 21.3471C18.411 21.1891 19.36 20.8571 20.109 20.1091L19.049 19.0491C18.625 19.4711 18.045 19.7251 17.039 19.8601C16.012 19.9981 14.657 20.0001 12.75 20.0001V21.5001ZM8.78 5.57854e-05C6.905 5.57854e-05 5.424 -0.00194421 4.269 0.153056C3.092 0.311056 2.14 0.643056 1.391 1.39106L2.451 2.45106C2.875 2.02906 3.456 1.77506 4.468 1.64006C5.501 1.50206 6.863 1.50006 8.78 1.50006V5.57854e-05ZM1.598 4.82306C1.719 3.58906 1.98 2.92306 2.452 2.45206L1.392 1.39206C0.556001 2.22606 0.239001 3.31106 0.105001 4.67706L1.598 4.82306ZM19.902 16.6771C19.781 17.9111 19.519 18.5771 19.048 19.0481L20.108 20.1081C20.944 19.2741 21.261 18.1891 21.395 16.8231L19.902 16.6771Z" fill="black"/>
</svg>
