<svg width="24" height="16" viewBox="0 0 24 16" fill="none" xmlns="http://www.w3.org/2000/svg">
<path fill-rule="evenodd" clip-rule="evenodd" d="M0 2.75C0 2.02065 0.289731 1.32118 0.805456 0.805456C1.32118 0.289731 2.02065 0 2.75 0H15.75C16.4793 0 17.1788 0.289731 17.6945 0.805456C18.2103 1.32118 18.5 2.02065 18.5 2.75V4.879C18.3793 4.959 18.2657 5.05233 18.159 5.159L15.159 8.159C14.9501 8.36793 14.7843 8.61597 14.6713 8.88896C14.5582 9.16194 14.5 9.45452 14.5 9.75C14.5 10.0455 14.5582 10.3381 14.6713 10.611C14.7843 10.884 14.9501 11.1321 15.159 11.341L18.06 14.242C17.8107 14.628 17.4687 14.9453 17.0652 15.1651C16.6616 15.3848 16.2095 15.5 15.75 15.5H2.75C2.02065 15.5 1.32118 15.2103 0.805456 14.6945C0.289731 14.1788 0 13.4793 0 12.75V2.75ZM16.22 9.22L18.5 6.94V12.56L17.5 11.56L16.22 10.28C16.0795 10.1394 16.0007 9.94875 16.0007 9.75C16.0007 9.55125 16.0795 9.36063 16.22 9.22ZM5.166 4.126C5.00049 4.01827 4.79917 3.98016 4.60573 4.01996C4.4123 4.05975 4.24237 4.17423 4.13282 4.33855C4.02328 4.50287 3.98296 4.70376 4.02063 4.89762C4.05829 5.09148 4.1709 5.26266 4.334 5.374L8.834 8.374C8.9572 8.45612 9.10194 8.49995 9.25 8.49995C9.39806 8.49995 9.5428 8.45612 9.666 8.374L14.166 5.374C14.3291 5.26266 14.4417 5.09148 14.4794 4.89762C14.517 4.70376 14.4767 4.50287 14.3672 4.33855C14.2576 4.17423 14.0877 4.05975 13.8943 4.01996C13.7008 3.98016 13.4995 4.01827 13.334 4.126L9.25 6.849L5.166 4.126Z" fill="white"/>
<path fill-rule="evenodd" clip-rule="evenodd" d="M20.2798 6.21995C20.4203 6.36058 20.4992 6.5512 20.4992 6.74995C20.4992 6.9487 20.4203 7.13932 20.2798 7.27995L18.5598 8.99995H22.7498C22.9487 8.99995 23.1395 9.07897 23.2802 9.21962C23.4208 9.36027 23.4998 9.55104 23.4998 9.74995C23.4998 9.94886 23.4208 10.1396 23.2802 10.2803C23.1395 10.4209 22.9487 10.5 22.7498 10.5H18.5598L20.2798 12.2199C20.3535 12.2886 20.4126 12.3714 20.4536 12.4634C20.4946 12.5554 20.5166 12.6547 20.5184 12.7554C20.5202 12.8561 20.5017 12.9562 20.464 13.0495C20.4262 13.1429 20.3701 13.2278 20.2989 13.299C20.2276 13.3702 20.1428 13.4264 20.0494 13.4641C19.956 13.5018 19.856 13.5203 19.7553 13.5185C19.6546 13.5168 19.5553 13.4947 19.4633 13.4537C19.3713 13.4127 19.2885 13.3536 19.2198 13.28L16.2198 10.28C16.0794 10.1393 16.0005 9.9487 16.0005 9.74995C16.0005 9.5512 16.0794 9.36058 16.2198 9.21995L19.2198 6.21995C19.3605 6.0795 19.5511 6.00061 19.7498 6.00061C19.9486 6.00061 20.1392 6.0795 20.2798 6.21995Z" fill="white"/>
</svg>
