<svg width="7" height="7" viewBox="0 0 7 7" fill="none" xmlns="http://www.w3.org/2000/svg">
<path d="M6.62093 0.00697679C6.77984 0.0395349 6.9 0.18062 6.9 0.348837V3.44961L6.89225 3.52016C6.87624 3.59901 6.83345 3.66991 6.77115 3.72083C6.70885 3.77176 6.63085 3.79957 6.55039 3.79957C6.46992 3.79957 6.39193 3.77176 6.32963 3.72083C6.26732 3.66991 6.22454 3.59901 6.20853 3.52016L6.20155 3.45039V1.18992L1.19147 6.20155L3.44961 6.20233L3.52016 6.2093C3.60424 6.22733 3.67871 6.27578 3.72926 6.34535C3.77981 6.41492 3.80288 6.50072 3.79403 6.58626C3.78519 6.6718 3.74506 6.75106 3.68135 6.80883C3.61764 6.86659 3.53483 6.89878 3.44884 6.89922H0.348837C0.25632 6.89922 0.167592 6.86247 0.102172 6.79705C0.0367525 6.73163 0 6.6429 0 6.55039V3.44961L0.00775193 3.37984C0.0237646 3.30099 0.0665471 3.23009 0.12885 3.17917C0.191153 3.12824 0.269146 3.10043 0.349612 3.10043C0.430079 3.10043 0.508072 3.12824 0.570375 3.17917C0.632678 3.23009 0.67546 3.30099 0.691473 3.37984L0.697675 3.44961V5.70853L5.70853 0.697675H3.44961C3.3571 0.697675 3.26837 0.660922 3.20295 0.595502C3.13753 0.530083 3.10078 0.441355 3.10078 0.348837C3.10078 0.25632 3.13753 0.167592 3.20295 0.102172C3.26837 0.0367525 3.3571 0 3.44961 0H6.55039L6.62093 0.00697679Z" fill="black"/>
</svg>
